<mxfile host="app.diagrams.net" modified="2024-02-29T02:10:22.346Z" agent="Mozilla/5.0 (Windows NT 10.0; Win64; x64) AppleWebKit/537.36 (KHTML, like Gecko) Chrome/121.0.0.0 Safari/537.36" version="23.1.7" etag="eHbMsp6x65hF_yliomV2" type="github">
  <diagram name="페이지-1" id="jbmBaX_fbK1Vl6JB3Odb">
    <mxGraphModel>
      <root>
        <mxCell id="0" />
        <mxCell id="1" parent="0" />
      </root>
    </mxGraphModel>
  </diagram>
</mxfile>
